<?xml version="1.0" encoding="UTF-8"?>
<svg id="Work" xmlns="http://www.w3.org/2000/svg" viewBox="0 0 1280 1024">
  <defs>
    <style>
      .cls-1 {
        fill: #fff;
      }
    </style>
  </defs>
  <path class="cls-1" d="M392.4,397.98c7.95,4.34,16.03,8.64,23,14.48,6.23,5.21,11.8,11.2,16.25,18,9.37,14.32,14.26,31.8,12.71,48.92-1.49,16.4-9.65,33.2-22.3,43.84-11.81,9.93-27.79,13.26-42.18,7.88-3.18-1.19-6.41-2.99-9.09-5.13-2.93-2.33-4.81-4.48-6.52-7.19-3.42-5.44-5.27-11.92-5.65-18.01-.83-13.25,3.5-26.25,15.51-32.98s26.8-5.21,40.2-.91c6.4,2.06,10.99,4.1,17.01,7.51,2.88,1.63,5.69,3.41,8.41,5.3,3,2.09,4.36,3.14,7.09,5.45,20.49,17.31,34.83,41.2,43.87,65.81,4.71,12.83,8.19,26.14,10.33,39.64,.54,3.38,.72,4.68,1.1,8.32,.34,3.19,.6,6.38,.78,9.58,.22,4,.34,8.01,.25,12.01-.05,2.37-.16,4.74-.39,7.09-.06,.6-.13,1.21-.2,1.81-.08,.79,.07-.48,.07-.52-.04,.25-.07,.51-.11,.76-.21,1.24-.43,2.48-.72,3.7-.24,1-.53,1.98-.86,2.96-.25,.75-.65,1.42-.05,.24-.26,.5-.48,1.01-.76,1.49-.19,.32-.51,.66-.64,1.01,.51-1.32,.6-.67-.02-.07-.69,.67-.74,.6,.14-.03-.39,.28-1.93,1.23,.06,.09-.31,.18-.72,.13-1.03,.26,1.03-.44,1.18,0,.1-.17-.07-.01,1.38,.4-.09-.08-.29-.09-1.79-.66-1.04-.32,.79,.35-.93-.52-1.19-.67-.61-.35-1.26-.74-1.77-1.17-1.21-1.02-2.18-2.35-3.02-3.71-4.57-7.47-7.06-16.59-9.19-25.01-9.35-36.88-4.5-76.06,5.58-112.25,4.53-16.25,9.37-31.8,17.59-46.13,6.95-12.12,15.91-22.99,28.67-28.88,2.34-1.08,6.17-2.24,9.39-2.84,3.66-.68,7.52-.78,11.24-.39,6.26,.66,12.94,3.62,18.06,8,11.53,9.85,18.97,24.18,21.95,38.97,2.85,14.14,.93,29.96-7.74,42.18s-23.43,18.29-36.91,11.13c-3.26-1.73-6.25-4.03-8.47-7-.99-1.33-1.88-2.85-2.48-4.38-.86-2.19-.91-3.06-.92-4.93-.01-2.31,.79-4.18,2.55-5.76,.57-.51,.1-.1-.03,0,.28-.2,.59-.38,.89-.55,1.05-.59,.46-.33,1.37-.59,1.51-.43,2.49-.47,4.41-.33,6.79,.49,14.54,4.72,20.76,8.28,6.83,3.92,13.08,8.69,19.44,13.32s12.62,8.83,19.73,11.87c8.19,3.5,16.98,5.2,25.91,4.97,8.79-.22,16.6-3.11,24.24-7.29,7.58-4.14,15.02-8.54,22.22-13.3,14.48-9.56,28.23-20.59,39.6-33.76,10.15-11.75,19.64-25.15,21.33-40.99,1.67-15.68-8.59-29.53-24.17-32.5-17.95-3.43-35.11,6.3-46.15,19.96-10.35,12.8-16.54,28.45-19.52,44.55-2.67,14.41-3.94,30.17,1.11,44.23,5.65,15.73,19.22,28.14,35.95,30.99,19.52,3.32,37.13-5.23,52.2-16.92,27.57-21.4,50.08-50.04,65.3-81.37,3.92-8.07,7.41-16.38,10.42-24.84,.54-1.52,.93-3.17,1.89-4.46-.44,.59,.36-.46,.27-.33,1.28-1.88,.12-.08,.17-.23,.09-.27,1.01-.3,.16-.15-.29,.05-1.84,.15-.79,.23-.35-.03-2.41-.51-1.4-.19-.16-.05-1.22-.98-.29-.13,.1,.09,.67,.75,.14,.11s.57,.93,.69,1.15c.39,.68,.73,1.39,1.05,2.1-.48-1.05,.06,.17,.21,.58,.23,.62,.45,1.24,.65,1.87,.38,1.15,.71,2.32,1.05,3.48,1.38,4.81,2.81,9.61,4.32,14.38,3.03,9.55,6.36,19,10.14,28.27,11.2,27.52,26.02,57.47,52.51,73.23,12.58,7.48,27.03,10.8,41.58,10.86,8.72,.04,8.73-13.51,0-13.55-14.51-.06-27.58-3.66-39.49-12.1-10.53-7.46-19.2-18.84-26.11-30.53-9.31-15.78-16.44-32.8-22.38-50.1-3.04-8.85-5.51-17.86-8.31-26.79-1.94-6.17-4.93-13.71-11.73-15.79-4.17-1.28-8.51,.55-11.5,3.46-3.55,3.45-4.89,8.26-6.53,12.77-3,8.22-6.52,16.23-10.5,24.02-8.08,15.82-17.98,30.74-29.56,44.22-11.61,13.5-24.94,26.93-40.28,36.16-7.5,4.52-15.81,7.79-24.67,7.86-8,.07-16.22-2.79-22.08-7.74-5.37-4.54-8.79-10.01-10.7-16.22-2.14-6.97-2.49-13.04-2.13-20.63,.36-7.59,1.4-14.07,3.32-21.73,1.97-7.83,4.67-15.28,8.59-22.3,7.37-13.17,20.54-26.74,37-25.55,3.62,.26,6.95,1.57,10.01,3.51,2.19,1.39,3.57,3.12,4.9,5.75,.1,.21,.47,1.19,.07,.12,.11,.29,.23,.59,.31,.89,.2,.71,.42,1.41,.58,2.13,.07,.31,.12,.62,.18,.93,.22,1.07-.08-1,.02,.1,.08,.86,.13,1.72,.13,2.58,0,.77-.02,1.53-.07,2.3-.03,.44-.07,.88-.12,1.32,.01-.14,.14-.94,.02-.14-.25,1.69-.64,3.35-1.11,4.99-1.03,3.6-1.65,5.06-3.37,8.31-1.89,3.56-4.17,6.92-6.52,10.19-5.05,7.03-10.96,13.45-17.25,19.37-12.87,12.13-27.65,21.99-42.99,30.71-6.94,3.94-14.19,7.99-21.77,8.33s-16.04-1.12-22.94-4.44c-14.53-7-26.18-18.7-40.45-26.21-7.72-4.07-16.73-8.19-25.67-7.81-9.01,.39-16.62,5.8-19.39,14.47-6.12,19.14,13.65,36.28,30.85,38.73,18.31,2.62,35.44-8.31,44.47-23.85,8.7-15,10.26-33.2,6.69-49.94-3.46-16.2-12.11-32.5-24.6-43.55-13.42-11.86-31.69-15.76-48.81-10.24-32.41,10.45-47.15,45.78-56.4,75.53-11.99,38.61-18.34,80.25-10.72,120.36,1.84,9.69,4.56,19.22,8.26,28.36,3.33,8.22,7.58,16.23,16.05,20.08,5.78,2.64,12.19,2.64,17.07-1.84,3.71-3.41,5.54-8.63,6.52-13.44,1.94-9.51,1.77-19.41,1.13-29.05-.93-14.11-3.34-28.17-7.05-41.8-7.66-28.12-20.87-55.35-40.5-77.09-9.44-10.46-20.63-19.62-33.11-26.24-13.01-6.9-28.45-12.17-43.33-11.81-16.77,.41-33.75,8.2-41.66,23.62-7.33,14.3-7.49,31.89-1.17,46.57,7.03,16.31,23.19,25.83,40.5,27.39,17.92,1.61,35.78-6.89,47.61-20.1,12.78-14.28,20.27-33.79,20.56-52.93,.28-18.81-5.94-38.13-16.87-53.4-4.98-6.96-10.76-13.26-17.41-18.66-7.65-6.21-16.07-11.02-24.69-15.73-7.66-4.18-14.5,7.51-6.84,11.7h0Z"/>
  <path class="cls-1" d="M912.56,413.14c-16.33,15.2-31.77,31.34-46.12,48.42-14.66,17.45-28.24,35.82-40.41,55.09-6.74,10.67-13.07,21.61-18.85,32.83-1.62,3.15-.92,7.5,2.43,9.27,3.1,1.64,7.54,.93,9.27-2.43,10.19-19.77,22.02-38.72,35-56.76,1.6-2.22,3.21-4.43,4.85-6.62,.78-1.05,1.57-2.1,2.37-3.15,.4-.52,.79-1.05,1.19-1.57,.2-.26,.4-.52,.6-.78,.07-.09,.83-1.08,.47-.62-.4,.52,.26-.34,.27-.35,.27-.35,.54-.69,.81-1.04,.4-.52,.81-1.03,1.22-1.55,.88-1.12,1.76-2.23,2.65-3.34,1.71-2.14,3.44-4.26,5.18-6.37,7.05-8.52,14.37-16.81,21.93-24.87,8.6-9.16,17.52-18.02,26.72-26.58,2.6-2.42,2.63-7.17,0-9.58-2.78-2.56-6.81-2.58-9.58,0h0Z"/>
  <g>
    <path class="cls-1" d="M593.74,599.26v25.07h10.58c.66,0,1.13,.12,1.41,.37s.42,.57,.42,.98-.14,.71-.42,.96c-.28,.26-.75,.39-1.41,.39h-23.85c-.64,0-1.1-.13-1.38-.39-.28-.26-.42-.58-.42-.96,0-.41,.14-.73,.42-.98s.74-.37,1.38-.37h10.58v-22.34h-7.85c-.64,0-1.11-.13-1.4-.38-.29-.26-.43-.58-.43-.96,0-.41,.14-.74,.42-.99,.28-.26,.75-.39,1.41-.39h10.55Zm-.1-13.82v6.96h-3.98v-6.96h3.98Z"/>
    <path class="cls-1" d="M644.91,586.79v37.54h3.59c.66,0,1.13,.12,1.41,.37s.42,.57,.42,.98-.14,.71-.42,.96c-.28,.26-.75,.39-1.41,.39h-6.32v-5.35c-3.12,4.27-7.09,6.41-11.89,6.41-2.44,0-4.77-.65-7.01-1.94-2.23-1.29-4-3.14-5.29-5.53-1.29-2.39-1.94-4.86-1.94-7.41s.65-5.04,1.94-7.42c1.29-2.38,3.06-4.23,5.29-5.53s4.58-1.96,7.04-1.96c4.7,0,8.66,2.14,11.86,6.41v-15.2h-3.59c-.66,0-1.13-.13-1.41-.38-.28-.26-.42-.59-.42-.99s.14-.71,.42-.96c.28-.26,.75-.38,1.41-.38h6.32Zm-2.73,26.42c0-3.42-1.15-6.3-3.46-8.66s-5.05-3.53-8.24-3.53-5.96,1.18-8.27,3.53-3.46,5.24-3.46,8.66,1.15,6.28,3.46,8.64c2.31,2.36,5.06,3.54,8.27,3.54s5.93-1.18,8.24-3.54c2.31-2.36,3.46-5.24,3.46-8.64Z"/>
    <path class="cls-1" d="M685.68,613.78h-27.44c.47,3.48,1.93,6.29,4.38,8.41,2.45,2.13,5.48,3.19,9.09,3.19,2.01,0,4.11-.33,6.31-.99,2.2-.66,4-1.54,5.39-2.63,.41-.32,.76-.48,1.06-.48,.34,0,.64,.13,.9,.4,.26,.27,.39,.58,.39,.95s-.17,.72-.51,1.06c-1.03,1.07-2.85,2.07-5.47,3-2.62,.93-5.3,1.4-8.06,1.4-4.62,0-8.47-1.51-11.56-4.54s-4.63-6.68-4.63-10.98c0-3.91,1.45-7.27,4.34-10.07,2.9-2.8,6.48-4.2,10.76-4.2s8.02,1.44,10.87,4.31c2.84,2.87,4.24,6.6,4.2,11.17Zm-2.73-2.73c-.53-2.97-1.94-5.39-4.21-7.25-2.28-1.86-4.99-2.79-8.13-2.79s-5.85,.92-8.11,2.76c-2.27,1.84-3.68,4.26-4.23,7.28h24.68Z"/>
    <path class="cls-1" d="M701.81,599.26v4.07c1.88-1.9,3.58-3.22,5.1-3.94,1.52-.73,3.23-1.09,5.13-1.09,2.05,0,3.92,.44,5.61,1.31,1.2,.64,2.28,1.7,3.25,3.19,.97,1.49,1.46,3.01,1.46,4.57v16.96h2.28c.64,0,1.1,.12,1.38,.37s.42,.57,.42,.98-.14,.71-.42,.96c-.28,.26-.74,.39-1.38,.39h-7.21c-.66,0-1.13-.13-1.41-.39-.28-.26-.42-.58-.42-.96,0-.41,.14-.73,.42-.98,.28-.25,.75-.37,1.41-.37h2.24v-16.51c0-1.9-.69-3.51-2.08-4.83s-3.25-1.97-5.58-1.97c-1.77,0-3.31,.36-4.62,1.07s-3.16,2.49-5.58,5.34v16.89h3.05c.64,0,1.1,.12,1.38,.37s.42,.57,.42,.98-.14,.71-.42,.96c-.28,.26-.74,.39-1.38,.39h-8.78c-.64,0-1.1-.13-1.38-.39-.28-.26-.42-.58-.42-.96,0-.41,.14-.73,.42-.98s.74-.37,1.38-.37h3.04v-22.34h-2.28c-.64,0-1.1-.13-1.38-.38-.28-.26-.42-.59-.42-.99s.14-.71,.42-.96c.28-.26,.74-.39,1.38-.39h4.97Z"/>
    <path class="cls-1" d="M744.38,599.26h14.62c.64,0,1.1,.13,1.38,.39,.28,.26,.42,.59,.42,.99,0,.38-.14,.7-.42,.96-.28,.26-.74,.38-1.38,.38h-14.62v17.92c0,1.56,.62,2.86,1.87,3.91,1.25,1.05,3.08,1.57,5.5,1.57,1.82,0,3.78-.27,5.9-.82s3.76-1.16,4.94-1.84c.43-.28,.78-.42,1.06-.42,.34,0,.64,.13,.9,.4,.26,.27,.39,.58,.39,.95,0,.32-.14,.62-.42,.9-.68,.71-2.35,1.47-4.98,2.29-2.64,.82-5.17,1.23-7.58,1.23-3.14,0-5.64-.74-7.5-2.21-1.86-1.47-2.79-3.46-2.79-5.96v-17.92h-4.97c-.64,0-1.1-.13-1.38-.38-.28-.26-.42-.59-.42-.99s.14-.71,.42-.96c.28-.26,.74-.39,1.38-.39h4.97v-7.95c0-.64,.13-1.1,.39-1.38s.58-.42,.96-.42c.41,0,.74,.14,.99,.42,.26,.28,.39,.74,.39,1.38v7.95Z"/>
    <path class="cls-1" d="M790.74,599.26v25.07h10.58c.66,0,1.13,.12,1.41,.37,.28,.25,.42,.57,.42,.98s-.14,.71-.42,.96c-.28,.26-.75,.39-1.41,.39h-23.85c-.64,0-1.1-.13-1.38-.39-.28-.26-.42-.58-.42-.96,0-.41,.14-.73,.42-.98,.28-.25,.74-.37,1.38-.37h10.58v-22.34h-7.85c-.64,0-1.11-.13-1.4-.38-.29-.26-.43-.58-.43-.96,0-.41,.14-.74,.42-.99,.28-.26,.75-.39,1.41-.39h10.55Zm-.1-13.82v6.96h-3.98v-6.96h3.98Z"/>
    <path class="cls-1" d="M823.18,599.26h14.62c.64,0,1.1,.13,1.38,.39,.28,.26,.42,.59,.42,.99,0,.38-.14,.7-.42,.96-.28,.26-.74,.38-1.38,.38h-14.62v17.92c0,1.56,.62,2.86,1.87,3.91,1.25,1.05,3.08,1.57,5.5,1.57,1.82,0,3.78-.27,5.9-.82s3.76-1.16,4.94-1.84c.43-.28,.78-.42,1.06-.42,.34,0,.64,.13,.9,.4,.26,.27,.39,.58,.39,.95,0,.32-.14,.62-.42,.9-.68,.71-2.35,1.47-4.98,2.29-2.64,.82-5.17,1.23-7.58,1.23-3.14,0-5.64-.74-7.5-2.21-1.86-1.47-2.79-3.46-2.79-5.96v-17.92h-4.97c-.64,0-1.1-.13-1.38-.38-.28-.26-.42-.59-.42-.99s.14-.71,.42-.96c.28-.26,.74-.39,1.38-.39h4.97v-7.95c0-.64,.13-1.1,.39-1.38s.58-.42,.96-.42c.41,0,.74,.14,.99,.42,.26,.28,.39,.74,.39,1.38v7.95Z"/>
    <path class="cls-1" d="M868.29,627.02l-12.5-25.04h-.8c-.64,0-1.1-.13-1.38-.38-.28-.26-.42-.58-.42-.96,0-.28,.07-.53,.21-.75,.14-.22,.32-.39,.54-.48,.22-.1,.57-.14,1.04-.14h7.37c.64,0,1.1,.13,1.38,.39,.28,.26,.42,.59,.42,.99,0,.38-.14,.7-.42,.96-.28,.26-.74,.38-1.38,.38h-3.62l11,22.09,10.84-22.09h-3.62c-.64,0-1.1-.13-1.38-.38-.28-.26-.42-.59-.42-.99s.14-.71,.42-.96c.28-.26,.74-.39,1.38-.39h7.34c.66,0,1.13,.13,1.41,.39,.28,.26,.42,.59,.42,.99,0,.28-.09,.53-.26,.77s-.36,.39-.58,.46c-.21,.07-.81,.11-1.8,.11l-17.06,34.72h4.2c.64,0,1.1,.12,1.38,.37s.42,.57,.42,.98-.14,.71-.42,.96-.74,.39-1.38,.39h-15.52c-.64,0-1.1-.12-1.38-.37-.28-.25-.42-.57-.42-.98s.14-.73,.42-.98c.28-.25,.74-.37,1.38-.37h8.43l4.74-9.68Z"/>
  </g>
  <path class="cls-1" d="M379.28,409.81c-.21-7.95-.41-15.9-.62-23.85-.09-3.63-.19-7.26-.28-10.89l-.16-6.14-.09-3.48c-.01-.48-.03-.97-.04-1.45-.01-.32-.02-.65-.02-.97,.02-1.37-.38-.38-1.21,2.98l-2.99,1.74c-.53,.08-1.05,.05-1.57-.1,.49,.09,.98,.17,1.47,.26,.98,.17,1.96,.35,2.94,.53,1.71,.31,3.43,.62,5.14,.94,3.67,.68,7.33,1.37,11,2.08,7.33,1.42,14.64,2.9,21.94,4.43,3.46,.73,7.49-1.01,8.33-4.73,.77-3.4-1.02-7.55-4.73-8.33-13.99-2.94-28.02-5.8-42.12-8.17-2.42-.41-4.48-.6-6.81,.38-3.06,1.29-4.61,4.12-4.9,7.31s.1,6.43,.19,9.57c.15,5.64,.29,11.28,.44,16.92,.18,6.99,.36,13.99,.54,20.98,.09,3.54,3.05,6.94,6.77,6.77s6.87-2.98,6.77-6.77h0Z"/>
</svg>